HIERARCHY
ROOT Hips
{
	OFFSET 0.00000 0.00000 0.00000
	CHANNELS 6 Xposition Yposition Zposition Zrotation Yrotation Xrotation 
	JOINT RightUpLegDummy
	{
		OFFSET 0 0 0
		CHANNELS 3 Zrotation Yrotation Xrotation
		JOINT RightUpLeg
		{
			OFFSET -3.52197 -3.41223 0.04002
			CHANNELS 3 Zrotation Yrotation Xrotation
			JOINT RightLeg
			{
				OFFSET 0.00006 -17.42390 1.60435
				CHANNELS 3 Zrotation Yrotation Xrotation
				JOINT RightFoot
				{
					OFFSET 0.06154 -16.50078 -1.63900
					CHANNELS 3 Zrotation Yrotation Xrotation
					JOINT RightToes
					{
						OFFSET 0.00298 -1.73825 3.34613
						CHANNELS 3 Zrotation Yrotation Xrotation
						End Site
						{
							OFFSET 0.00480 -0.05416 3.85043
						}
					}
				}
			}
		}
	}
	JOINT SpineDummy
	{
		OFFSET 0 0 0
		CHANNELS 3 Zrotation Yrotation Xrotation
		JOINT Spine
		{
			OFFSET 0.00000 4.68130 0.00000
			CHANNELS 3 Zrotation Yrotation Xrotation
			JOINT Spine1
			{
				OFFSET -0.00000 10.10138 0.05002
				CHANNELS 3 Zrotation Yrotation Xrotation
				JOINT HEadDummy
				{
					OFFSET 0 0 0
					CHANNELS 3 Zrotation Yrotation Xrotation
					JOINT Head
					{
						OFFSET -0.00000 3.43865 0.00438
						CHANNELS 3 Zrotation Yrotation Xrotation
						End Site
						{
							OFFSET -0.11417 5.02924 0.98962
						}
					}
				}
				JOINT LeftShoulder1Dummy
				{
					OFFSET 0 0 0
					CHANNELS 3 Zrotation Yrotation Xrotation
					JOINT LeftShoulder1
					{
						OFFSET 3.53937 -0.14262 -0.08662
						CHANNELS 3 Zrotation Yrotation Xrotation
						JOINT LeftArm
						{
							OFFSET 4.04833 -0.00133 0.12681
							CHANNELS 3 Zrotation Yrotation Xrotation
							JOINT LeftForeArm
							{
								OFFSET 10.33880 -0.01036 -0.55515
								CHANNELS 3 Zrotation Yrotation Xrotation
								JOINT LeftHand
								{
									OFFSET 8.69677 0.07543 0.40060
									CHANNELS 3 Zrotation Yrotation Xrotation
									End Site
									{
										OFFSET 5.28377 -0.21905 0.59205
									}
								}
							}
						}
					}
				}
				JOINT RightShoulderDummy
				{
					OFFSET 0 0 0
					CHANNELS 3 Zrotation Yrotation Xrotation
					JOINT RightShoulder
					{
						OFFSET -3.53937 -0.14262 -0.08660
						CHANNELS 3 Zrotation Yrotation Xrotation
						JOINT RightArm
						{
							OFFSET -4.04833 -0.00133 0.12683
							CHANNELS 3 Zrotation Yrotation Xrotation
							JOINT RightForeArm
							{
								OFFSET -10.37987 -0.01039 -0.55511
								CHANNELS 3 Zrotation Yrotation Xrotation
								JOINT RightHand
								{
									OFFSET -8.67398 0.07538 0.40058
									CHANNELS 3 Zrotation Yrotation Xrotation
									End Site
									{
										OFFSET -5.24810 -0.21916 0.59204
									}
								}
							}
						}
					}
				}
			}
		}
	}
	JOINT LeftUpLegDummy
	{
		OFFSET 0 0 0
		CHANNELS 3 Zrotation Yrotation Xrotation
		JOINT LeftUpLeg
		{
			OFFSET 3.52197 -3.41223 0.04002
			CHANNELS 3 Zrotation Yrotation Xrotation
			JOINT LeftLeg
			{
				OFFSET -0.00012 -17.42399 1.60337
				CHANNELS 3 Zrotation Yrotation Xrotation
				JOINT LeftFoot
				{
					OFFSET -0.09972 -16.50070 -1.63802
					CHANNELS 3 Zrotation Yrotation Xrotation
					JOINT LeftToes
					{
						OFFSET -0.01575 -1.73823 3.34611
						CHANNELS 3 Zrotation Yrotation Xrotation
						End Site
						{
							OFFSET 0.03150 -0.01868 3.85031
						}
					}
				}
			}
		}
	}
}
MOTION
Frames: 18
Frame Time: 0.033333
-6.6353 39.0766 9.1128 -178.9230 45.9259 -178.5350 0.0000 0.0000 0.0000 -5.8305 -8.9225 -14.7445 -3.0273 -15.4959 10.9357 10.9687 -1.6913 6.4044 -0.0000 -0.0000 0.0000 0.0000 0.0000 0.0000 -7.0359 -0.4337 9.9619 2.4718 -2.3501 25.9767 0.0000 0.0000 0.0000 -21.8762 37.5633 -28.8664 0.0000 0.0000 0.0000 -20.9593 -5.7161 2.5210 -53.2356 -34.2099 27.7379 -25.5966 -84.7163 -23.9221 35.1909 1.8875 -1.0894 0.0000 0.0000 0.0000 11.6808 -0.0652 0.6440 58.5307 13.5032 6.5437 179.9522 68.9307 -171.2473 -15.5641 5.4291 -1.4145 0.0000 0.0000 0.0000 8.8506 -9.7913 -4.0118 1.9933 3.6159 18.2671 -11.2703 -0.2846 -15.1628 -0.0000 -0.0000 -0.0000
-6.6353 39.0766 9.1128 -178.9610 45.9116 -178.5900 0.0000 0.0000 0.0000 -5.8602 -8.9539 -14.7194 -3.0290 -15.4699 10.9558 10.9493 -1.6900 6.3895 -0.0000 -0.0000 0.0000 0.0000 0.0000 0.0000 -7.0693 -0.4417 10.0117 2.4709 -2.3624 25.9384 0.0000 0.0000 0.0000 -21.8915 37.5737 -28.8626 0.0000 0.0000 0.0000 -20.9717 -5.7382 2.5281 -53.1942 -34.1337 27.6808 -25.6494 -84.7241 -23.6842 34.8765 1.9477 -1.0612 0.0000 0.0000 0.0000 11.6910 -0.0550 0.6440 58.5158 13.4915 6.5318 179.9442 68.8992 -171.3115 -15.5562 5.4535 -1.4163 0.0000 0.0000 0.0000 8.8153 -9.8370 -3.9663 2.0075 3.6480 18.2332 -11.2990 -0.2828 -15.1446 -0.0000 -0.0000 -0.0000
-6.6349 39.0770 9.1128 -179.0150 45.8144 -178.6510 0.0000 0.0000 0.0000 -5.9162 -9.0195 -14.6865 -3.0276 -15.4931 10.9858 10.9282 -1.6886 6.3664 -0.0000 -0.0000 0.0000 0.0000 0.0000 0.0000 -7.1167 -0.4860 10.0872 2.4659 -2.4173 25.8939 0.0000 0.0000 0.0000 -21.9240 37.5716 -28.9095 0.0000 0.0000 0.0000 -20.9435 -5.7961 2.5414 -53.1604 -34.0366 27.5925 -25.4313 -84.6979 -23.5851 34.0488 2.1157 -0.9850 0.0000 0.0000 0.0000 11.7253 -0.0465 0.6440 58.4983 13.5107 6.4862 179.9246 68.8722 -171.4857 -15.6014 5.4537 -1.4204 0.0000 0.0000 0.0000 8.7768 -9.9689 -3.9512 2.0224 3.6862 18.1988 -11.3051 -0.2824 -15.1108 -0.0000 -0.0000 -0.0000
-6.6330 39.0784 9.1129 -179.0420 45.7212 -178.6550 0.0000 0.0000 0.0000 -5.9487 -9.0580 -14.6832 -3.0259 -15.5522 10.9977 10.9272 -1.6885 6.3562 -0.0000 -0.0000 0.0000 0.0000 0.0000 0.0000 -7.1428 -0.5285 10.1308 2.4555 -2.4648 25.8643 0.0000 0.0000 0.0000 -21.9483 37.5552 -28.9773 0.0000 0.0000 0.0000 -20.8998 -5.8318 2.5483 -53.1699 -33.9957 27.5920 -25.0468 -84.6494 -23.6968 33.4199 2.1784 -0.9476 0.0000 0.0000 0.0000 11.7727 -0.0612 0.6440 58.4521 13.5575 6.4428 179.8947 68.8658 -171.7398 -15.7425 5.4020 -1.4271 0.0000 0.0000 0.0000 8.7683 -10.0711 -3.9816 2.0283 3.7029 18.1795 -11.2887 -0.2834 -15.0830 -0.0000 -0.0000 -0.0000
-6.6295 39.0791 9.1132 -179.0400 45.6986 -178.6230 0.0000 0.0000 0.0000 -5.9455 -9.0491 -14.7077 -3.0339 -15.5906 10.9987 10.9427 -1.6895 6.3586 -0.0000 -0.0000 0.0000 0.0000 0.0000 0.0000 -7.1403 -0.5411 10.1499 2.4335 -2.4690 25.8291 0.0000 0.0000 0.0000 -21.9586 37.5597 -29.0096 0.0000 0.0000 0.0000 -20.8918 -5.8172 2.5500 -53.1889 -34.0108 27.6887 -24.8023 -84.6181 -23.7827 33.5089 2.0207 -0.9965 0.0000 0.0000 0.0000 11.8095 -0.0874 0.6440 58.3696 13.5873 6.4356 179.8677 68.8559 -171.9719 -15.9351 5.3341 -1.4365 0.0000 0.0000 0.0000 8.7807 -10.0917 -4.0136 2.0293 3.7043 18.1705 -11.2981 -0.2828 -15.0727 -0.0000 -0.0000 -0.0000
-6.6260 39.0796 9.1127 -179.0320 45.7031 -178.6010 0.0000 0.0000 0.0000 -5.9344 -9.0265 -14.7278 -3.0501 -15.6021 11.0106 10.9584 -1.6905 6.3590 -0.0000 -0.0000 0.0000 0.0000 0.0000 0.0000 -7.1149 -0.5457 10.1623 2.3915 -2.4520 25.8066 0.0000 0.0000 0.0000 -21.9666 37.5975 -29.0159 0.0000 0.0000 0.0000 -20.8983 -5.8006 2.5493 -53.1965 -34.0500 27.7681 -24.7270 -84.6087 -23.7958 33.9647 1.8347 -1.0654 0.0000 0.0000 0.0000 11.8281 -0.0972 0.6440 58.3028 13.5890 6.4470 179.8563 68.8372 -172.0706 -16.0830 5.3069 -1.4469 0.0000 0.0000 0.0000 8.7931 -10.0937 -4.0272 2.0278 3.7067 18.1739 -11.3327 -0.2806 -15.0749 -0.0000 -0.0000 -0.0000
-6.6234 39.0799 9.1107 -179.0190 45.6900 -178.5980 0.0000 0.0000 0.0000 -5.9279 -9.0131 -14.7212 -3.0633 -15.6139 11.0255 10.9637 -1.6908 6.3593 -0.0000 -0.0000 0.0000 0.0000 0.0000 0.0000 -7.0822 -0.5626 10.1496 2.3465 -2.4463 25.8463 0.0000 0.0000 0.0000 -21.9722 37.6365 -29.0391 0.0000 0.0000 0.0000 -20.8745 -5.8218 2.5474 -53.2211 -34.0933 27.7615 -24.7006 -84.6052 -23.8409 34.1807 1.8245 -1.0756 0.0000 0.0000 0.0000 11.8306 -0.0867 0.6440 58.2944 13.5958 6.4505 179.8629 68.8346 -172.0128 -16.1280 5.3363 -1.4548 0.0000 0.0000 0.0000 8.8045 -10.1180 -4.0291 2.0260 3.7140 18.1901 -11.3391 -0.2802 -15.0823 -0.0000 -0.0000 -0.0000
-6.6200 39.0803 9.1077 -178.9840 45.6860 -178.5880 0.0000 0.0000 0.0000 -5.9086 -8.9920 -14.6889 -3.0645 -15.6346 11.0130 10.9590 -1.6905 6.3594 -0.0000 -0.0000 0.0000 0.0000 0.0000 0.0000 -7.0728 -0.5744 10.1074 2.3456 -2.4574 25.9365 0.0000 0.0000 0.0000 -21.9590 37.6504 -29.0676 0.0000 0.0000 0.0000 -20.8400 -5.8453 2.5456 -53.2854 -34.1244 27.7283 -24.7201 -84.6074 -23.8847 34.0660 1.9340 -1.0393 0.0000 0.0000 0.0000 11.8099 -0.0747 0.6440 58.3244 13.6263 6.4626 179.8763 68.8592 -171.8996 -16.0970 5.3801 -1.4589 0.0000 0.0000 0.0000 8.8274 -10.1310 -4.0164 2.0271 3.7208 18.2067 -11.2986 -0.2828 -15.0938 -0.0000 -0.0000 -0.0000
-6.6144 39.0807 9.1043 -178.9270 45.7132 -178.5640 0.0000 0.0000 0.0000 -5.8672 -8.9494 -14.6428 -3.0592 -15.6567 10.9717 10.9518 -1.6901 6.3594 -0.0000 -0.0000 0.0000 0.0000 0.0000 0.0000 -7.1011 -0.5665 10.0747 2.4039 -2.4781 26.0057 0.0000 0.0000 0.0000 -21.9181 37.6503 -29.0533 0.0000 0.0000 0.0000 -20.8339 -5.8288 2.5409 -53.3661 -34.1236 27.7311 -24.7987 -84.6178 -23.8414 33.8712 2.0103 -1.0106 0.0000 0.0000 0.0000 11.7731 -0.0695 0.6440 58.3530 13.6557 6.5073 179.8808 68.8865 -171.8576 -16.0589 5.3916 -1.4594 0.0000 0.0000 0.0000 8.8644 -10.1166 -3.9832 2.0325 3.7279 18.2143 -11.2555 -0.2855 -15.1077 -0.0000 -0.0000 -0.0000
-6.6077 39.0813 9.1012 -178.8680 45.7390 -178.5390 0.0000 0.0000 0.0000 -5.8234 -8.9027 -14.5968 -3.0543 -15.6813 10.9318 10.9504 -1.6900 6.3592 -0.0000 -0.0000 0.0000 0.0000 0.0000 0.0000 -7.1385 -0.5599 10.0647 2.4615 -2.5015 26.0368 0.0000 0.0000 0.0000 -21.8671 37.6540 -29.0103 0.0000 0.0000 0.0000 -20.8249 -5.7917 2.5300 -53.4367 -34.1010 27.7456 -24.8200 -84.6209 -23.7998 33.7244 2.0379 -0.9980 0.0000 0.0000 0.0000 11.7599 -0.0641 0.6440 58.3728 13.6561 6.5651 179.8746 68.8894 -171.9129 -16.0575 5.3803 -1.4571 0.0000 0.0000 0.0000 8.9029 -10.1047 -3.9459 2.0407 3.7411 18.2166 -11.2456 -0.2861 -15.1149 -0.0000 -0.0000 -0.0000
-6.6016 39.0821 9.0981 -178.8300 45.7362 -178.5220 0.0000 0.0000 0.0000 -5.7989 -8.8746 -14.5647 -3.0518 -15.7077 10.9124 10.9541 -1.6902 6.3589 -0.0000 -0.0000 0.0000 0.0000 0.0000 0.0000 -7.1520 -0.5773 10.0347 2.4586 -2.5206 26.0889 0.0000 0.0000 0.0000 -21.8428 37.6645 -29.0140 0.0000 0.0000 0.0000 -20.7621 -5.7634 2.5168 -53.4989 -34.0981 27.7448 -24.7187 -84.6079 -23.8589 33.6645 2.0588 -0.9900 0.0000 0.0000 0.0000 11.7897 -0.0568 0.6440 58.3956 13.6333 6.6035 179.8663 68.8685 -171.9884 -16.0785 5.3796 -1.4558 0.0000 0.0000 0.0000 8.9291 -10.1076 -3.9267 2.0473 3.7557 18.2190 -11.2534 -0.2857 -15.1119 -0.0000 -0.0000 -0.0000
-6.5970 39.0826 9.0942 -178.8150 45.7208 -178.5120 0.0000 0.0000 0.0000 -5.7944 -8.8672 -14.5472 -3.0508 -15.7247 10.9052 10.9515 -1.6901 6.3586 -0.0000 -0.0000 0.0000 0.0000 0.0000 0.0000 -7.1566 -0.6082 9.9691 2.4258 -2.5387 26.1836 0.0000 0.0000 0.0000 -21.8648 37.6881 -29.0834 0.0000 0.0000 0.0000 -20.6736 -5.7288 2.4998 -53.5522 -34.1326 27.7576 -24.6465 -84.5987 -23.9031 33.7044 2.0594 -0.9911 0.0000 0.0000 0.0000 11.8104 -0.0546 0.6440 58.4299 13.6116 6.6232 179.8625 68.8416 -172.0178 -16.0679 5.3742 -1.4543 0.0000 0.0000 0.0000 8.9401 -10.1112 -3.9233 2.0483 3.7613 18.2228 -11.2574 -0.2854 -15.1113 -0.0000 -0.0000 -0.0000
-6.5948 39.0831 9.0906 -178.8070 45.7099 -178.5090 0.0000 0.0000 0.0000 -5.7961 -8.8684 -14.5307 -3.0507 -15.7325 10.9006 10.9387 -1.6893 6.3586 -0.0000 -0.0000 0.0000 0.0000 0.0000 0.0000 -7.1850 -0.6296 9.9210 2.4335 -2.5669 26.2604 0.0000 0.0000 0.0000 -21.9044 37.7339 -29.1425 0.0000 0.0000 0.0000 -20.6201 -5.6774 2.4813 -53.5832 -34.1786 27.7942 -24.7358 -84.6112 -23.8204 33.6817 2.0589 -0.9905 0.0000 0.0000 0.0000 11.7699 -0.0601 0.6440 58.4768 13.6053 6.6348 179.8637 68.8244 -172.0081 -15.9933 5.3302 -1.4415 0.0000 0.0000 0.0000 8.9450 -10.1263 -3.9196 2.0480 3.7651 18.2315 -11.2664 -0.2848 -15.1183 -0.0000 -0.0000 -0.0000
-6.5948 39.0836 9.0888 -178.7900 45.6990 -178.5070 0.0000 0.0000 0.0000 -5.7923 -8.8661 -14.5080 -3.0499 -15.7450 10.8985 10.9334 -1.6889 6.3586 -0.0000 -0.0000 0.0000 0.0000 0.0000 0.0000 -7.2221 -0.6376 9.9294 2.4713 -2.5965 26.2756 0.0000 0.0000 0.0000 -21.9204 37.7974 -29.1388 0.0000 0.0000 0.0000 -20.5969 -5.6422 2.4698 -53.5929 -34.2177 27.8118 -24.8732 -84.6298 -23.7215 33.4538 2.1138 -0.9676 0.0000 0.0000 0.0000 11.7163 -0.0677 0.6440 58.5120 13.6147 6.6243 179.8689 68.8245 -171.9649 -15.9052 5.2833 -1.4271 0.0000 0.0000 0.0000 8.9534 -10.1704 -3.9119 2.0567 3.7901 18.2491 -11.2896 -0.2834 -15.1277 -0.0000 -0.0000 -0.0000
-6.5959 39.0839 9.0880 -178.7660 45.6949 -178.5060 0.0000 0.0000 0.0000 -5.7815 -8.8563 -14.4898 -3.0482 -15.7585 10.8952 10.9490 -1.6899 6.3586 -0.0000 -0.0000 0.0000 0.0000 0.0000 0.0000 -7.2208 -0.6445 9.9627 2.4546 -2.5980 26.2594 0.0000 0.0000 0.0000 -21.9177 37.8723 -29.1244 0.0000 0.0000 0.0000 -20.5601 -5.6401 2.4661 -53.6002 -34.2630 27.7938 -24.8795 -84.6323 -23.7310 33.2369 2.1753 -0.9433 0.0000 0.0000 0.0000 11.7454 -0.0717 0.6440 58.4891 13.6347 6.5858 179.8788 68.8385 -171.8833 -15.9108 5.3061 -1.4306 0.0000 0.0000 0.0000 8.9640 -10.2166 -3.9061 2.0758 3.8375 18.2706 -11.3095 -0.2821 -15.1334 -0.0000 -0.0000 -0.0000
-6.5971 39.0843 9.0876 -178.7530 45.7173 -178.5070 0.0000 0.0000 0.0000 -5.7716 -8.8460 -14.4852 -3.0439 -15.7485 10.8877 10.9647 -1.6909 6.3587 -0.0000 -0.0000 0.0000 0.0000 0.0000 0.0000 -7.1766 -0.6569 9.9808 2.3497 -2.5625 26.2502 0.0000 0.0000 0.0000 -21.9312 37.9577 -29.1632 0.0000 0.0000 0.0000 -20.5058 -5.6360 2.4604 -53.6214 -34.3127 27.7777 -24.7979 -84.6249 -23.7565 33.2889 2.1531 -0.9513 0.0000 0.0000 0.0000 11.8593 -0.0700 0.6440 58.4037 13.6616 6.5528 179.8879 68.8574 -171.7979 -16.0394 5.3885 -1.4535 0.0000 0.0000 0.0000 8.9657 -10.2205 -3.8994 2.0931 3.8764 18.2829 -11.3082 -0.2822 -15.1371 -0.0000 -0.0000 -0.0000
-6.5991 39.0846 9.0874 -178.7550 45.7620 -178.5120 0.0000 0.0000 0.0000 -5.7684 -8.8432 -14.4851 -3.0282 -15.7116 10.8700 10.9530 -1.6902 6.3611 -0.0000 -0.0000 0.0000 0.0000 0.0000 0.0000 -7.1343 -0.6680 9.9889 2.2210 -2.5161 26.2471 0.0000 0.0000 0.0000 -21.9591 38.0290 -29.2254 0.0000 0.0000 0.0000 -20.4488 -5.6124 2.4491 -53.6708 -34.3311 27.7769 -24.7867 -84.6277 -23.6940 33.4077 2.1111 -0.9670 0.0000 0.0000 0.0000 11.9656 -0.0676 0.6440 58.3186 13.6940 6.5542 179.8906 68.8781 -171.7741 -16.1854 5.4449 -1.4748 0.0000 0.0000 0.0000 8.9561 -10.1818 -3.8833 2.0973 3.8811 18.2794 -11.2949 -0.2830 -15.1372 -0.0000 -0.0000 -0.0000
-6.6016 39.0849 9.0874 -178.7570 45.7998 -178.5210 0.0000 0.0000 0.0000 -5.7678 -8.8419 -14.4717 -3.0060 -15.6824 10.8378 10.9292 -1.6887 6.3736 -0.0000 -0.0000 0.0000 0.0000 0.0000 0.0000 -7.1205 -0.6707 9.9989 2.1420 -2.4834 26.2510 0.0000 0.0000 0.0000 -21.9689 38.0430 -29.2444 0.0000 0.0000 0.0000 -20.3810 -5.6074 2.4423 -53.7515 -34.3055 27.7598 -24.8536 -84.6407 -23.6218 33.2910 2.1588 -0.9497 0.0000 0.0000 0.0000 12.0110 -0.0697 0.6440 58.2823 13.7322 6.5709 179.8852 68.9021 -171.8165 -16.2408 5.4401 -1.4794 0.0000 0.0000 0.0000 8.9493 -10.1355 -3.8605 2.0897 3.8588 18.2667 -11.2881 -0.2835 -15.1361 -0.0000 -0.0000 -0.0000
